<?xml version="1.0" encoding="UTF-8"?>
<svg id="Layer_1" data-name="Layer 1" xmlns="http://www.w3.org/2000/svg" viewBox="0 0 487.34 485.14">
  <defs>
    <style>
      .cls-1 {
        fill: #fff;
      }
    </style>
  </defs>
  <path class="cls-1" d="m487.34,244.23c-.42-8.31-.55-15.11-1.16-21.86-.75-8.3-1.21-16.73-3.06-24.81-2.88-12.64-6.4-25.18-10.41-37.52-5.63-17.3-14-33.38-23.82-48.66-12.59-19.6-27.79-37-45.34-52.31-.81-.71-2.97-.91-3.83-.35-7.62,4.99-15.37,9.85-22.54,15.45-16.89,13.19-33.67,26.53-50.14,40.24-12.53,10.43-24.58,21.44-36.69,32.36-8,7.21-15.92,14.52-23.53,22.13-18.8,18.79-37.45,37.72-56.05,56.71-9.76,9.96-19.23,20.21-28.92,30.23-2.96,3.06-3.05,6.59-1.61,9.99,3.63,8.61,7.58,17.08,11.52,25.56,6.72,14.44,13.37,28.92,20.33,43.24,12.43,25.56,25.15,50.95,41.61,74.3,11.04,15.67,22.99,30.43,37.62,42.92,9.73,8.31,20.86,14.02,33.01,17.73,2.2.67,5.07.44,7.28-.36,13.38-4.83,26-11.25,38.21-18.54,14.38-8.58,27.73-18.56,39.87-30,8.39-7.91,15.95-16.75,23.52-25.49,10.79-12.45,19.48-26.35,27.02-40.97,6.93-13.45,13.1-27.26,16.78-41.95,3.25-12.94,6.28-25.98,8.35-39.15,1.57-9.99,1.46-20.25,2.01-28.91Zm-329.33-63.5c-.74,6.62-1.35,12.94-2.21,19.22-.24,1.73-.64,3.2,1.38,3.96,1.89.71,3.29,1.11,4.81-1.3,6.32-10.05,12.97-19.9,19.54-29.8,12.63-19.02,25.18-38.1,37.97-57.01,7.26-10.75,13.78-21.82,17.42-34.36,2.73-9.4-.51-15.91-8.21-16.89-9.04-1.16-18.46-1.07-27.52.07-10.46,1.32-20.68,4.46-31.03,6.68-14.91,3.19-29.39,7.76-43.15,14.27-23.85,11.28-46.76,24.24-67.92,40.07-13.7,10.25-27.08,20.93-40.56,31.48-1.06.83-2.09,2.02-2.53,3.26-1.68,4.65-3.25,9.35-4.59,14.1-2.04,7.2-3.59,14.55-5.83,21.68C2.2,206.92.22,217.85.05,229.15c-.2,13.62.16,27.2,2.86,40.59,2.85,14.17,5.11,28.52,8.96,42.42,6.85,24.74,18.32,47.48,32.76,68.69,1.7,2.49,3.64,4.82,5.57,7.35,3.41-7.41,6.29-14.35,9.71-21,9.41-18.28,18.78-36.59,28.68-54.61,7.71-14.04,16.13-27.69,24.33-41.47,5.07-8.52,10.51-16.82,15.39-25.44,4.22-7.44,4.98-15.59,3.1-23.92-.73-3.24-2.47-6.37-2.63-9.6-.54-11.22,5.27-19.34,13.92-25.64,4.3-3.13,9.14-5.28,15.31-5.79ZM39.44,111.92c.18.28.36.56.53.84.73-.42,1.46-.84,2.19-1.26,7.67-4.46,15.21-9.19,23.04-13.35,27.86-14.79,56.7-27.37,86.96-36.43,10.46-3.13,21.08-5.81,31.78-7.99,8.7-1.77,17.61-2.62,26.45-3.65,10.96-1.27,21.96-2.35,32.83.72,10.04,2.84,17.03,8.73,19.88,19.23,1.67,6.17,1.05,12.07-.1,18.15-2.99,15.71-8.4,30.51-17.33,43.75-15.48,22.96-31.32,45.67-47.14,68.39-7.65,10.99-15.64,21.74-23.38,32.67-1.91,2.7-3.6,5.59-5.04,8.57-1.39,2.86.19,5.33,2.4,6.85.6.41,3.1-1.14,4.15-2.3,6.78-7.52,13.3-15.28,20.11-22.77,9.04-9.95,18.24-19.76,27.43-29.58,8.16-8.72,16.22-17.56,24.66-26,19.12-19.13,38.44-38.07,57.71-57.05,3.25-3.2,6.61-6.29,10.03-9.31,9.51-8.4,19.02-16.8,28.63-25.09,6.41-5.54,12.92-10.96,19.5-16.31,6.51-5.29,13.16-10.4,19.91-15.72C327.53,4.75,264.73-8.01,197.21,4.79c-67.82,12.86-119.6,50.36-157.76,107.13Zm259.61,367.77c-4.41-2.38-8.16-4.14-11.65-6.32-16.53-10.36-30.47-23.57-42.95-38.52-11.71-14.02-20.59-29.79-29.54-45.55-5.64-9.93-10.95-20.06-16.44-30.08-9.37-17.11-18.77-34.21-28.15-51.32-4.11-7.49-8.22-14.98-12.32-22.47-1.07-1.95-2.03-2.22-3.46-.21-1.35,1.89-3.12,3.46-4.5,5.32-10.59,14.29-21.43,28.41-31.59,43-9.48,13.62-18.4,27.65-27.2,41.73-7.39,11.82-14.25,23.98-21.62,36.47,64.6,62.71,140.8,84.78,229.41,67.95Zm-181.69-168.03c.18.19.36.39.54.58.6-.45,1.29-.82,1.79-1.36,7.99-8.67,16-17.33,23.92-26.06,2.17-2.4,4.52-4.82,5.91-7.66.84-1.72.84-5.29-.28-6.21-1.86-1.54-3.22,1-4.38,2.63-2.67,3.77-5.45,7.46-8.16,11.21-6.46,8.95-12.91,17.92-19.36,26.89Z"/>
</svg>