<svg xmlns="http://www.w3.org/2000/svg" viewBox="422.7 371.4 666.6 95.2"><path fill="#8a9ca0" fill-rule="evenodd" d="M442 371h19v19h-19Zm19 0h19v19h-19Zm19 0h19v19h-19Zm-57 19h19v19h-19Zm76 0h19v19h-19Zm-76 19h19v19h-19Zm38 0h19v19h-19Zm19 0h19v19h-19Zm-57 19h19v20h-19Zm76 0h19v20h-19Zm-76 20h19v19h-19Zm76 0h19v19h-19Zm57-77h19v19h-19Zm19 0h19v19h-19Zm19 0h19v19h-19Zm-57 19h19v19h-19Zm76 0h19v19h-19Zm-76 19h19v19h-19Zm19 0h19v19h-19Zm19 0h19v19h-19Zm19 0h19v19h-19Zm19 0h19v19h-19Zm-76 19h19v20h-19Zm76 0h19v20h-19Zm-76 20h19v19h-19Zm76 0h19v19h-19Zm57-77h19v19h-19Zm19 0h19v19h-19Zm19 0h19v19h-19Zm19 0h19v19h-19Zm-76 19h19v19h-19Zm19 19h19v19h-19Zm19 0h19v19h-19Zm19 0h19v19h-19Zm19 19h19v20h-19Zm-76 20h19v19h-19Zm19 0h19v19h-19Zm19 0h19v19h-19Zm19 0h19v19h-19Zm58-77h19v19h-19Zm19 0h19v19h-19Zm38 0h19v19h-19Zm19 0h19v19h-19Zm-38 19h19v19h-19Zm0 19h19v19h-19Zm0 19h19v20h-19Zm0 20h19v19h-19Zm95-77h19v19h-19Zm19 0h19v19h-19Zm19 0h19v19h-19Zm19 0h19v19h-19Zm-76 19h19v19h-19Zm19 19h19v19h-19Zm19 0h19v19h-19Zm19 0h19v19h-19Zm-57 19h19v20h-19Zm19 20h19v19h-19Zm19 0h19v19h-19Zm19 0h19v19h-19Zm19 0h19v19h-19Zm57-77h19v19h-19Zm19 0h19v19h-19Zm19 0h19v19h-19Zm-57 19h19v19h-19Zm76 0h19v19h-19Zm-76 19h19v19h-19Zm38 0h19v19h-19Zm19 0h19v19h-19Zm-57 19h19v20h-19Zm76 0h19v20h-19Zm-76 20h19v19h-19Zm76 0h19v19h-19Z"/></svg>