<?xml version="1.0" encoding="UTF-8"?>
<svg id="Layer_2" data-name="Layer 2" xmlns="http://www.w3.org/2000/svg" viewBox="0 0 110.64 102.11">
  <defs>
    <style>
      .cls-1 {
        fill: #fff;
      }
    </style>
  </defs>
  <g id="Layer_1-2" data-name="Layer 1">
    <g>
      <path class="cls-1" d="m49.17,10.62c0-1.7.02-3.06,0-4.42-.04-2.55.73-4.73,3.21-5.64,2.08-.77,4.37-.94,6.06.84.85.9,1.5,2.32,1.63,3.57.25,2.51.03,5.07.12,7.6.02.58.36,1.33.79,1.7,1.75,1.47,3.81,2.62,5.38,4.27,3.79,3.97,7.67,7.93,10.97,12.32,3.47,4.63,5.94,9.88,5.83,16.02-.07,3.82-1.43,7.29-3.45,10.25-2.95,4.32-6.41,8.3-9.82,12.27-.74.87-2.17,1.34-3.35,1.53-1.57.26-3.21.1-4.82.05-1.08-.03-1.6.35-1.57,1.53.05,1.97.03,3.93,0,5.9-.01,1.03.42,1.53,1.43,1.52,3.28-.03,6.56.08,9.83-.12,2.94-.19,4.77-2.49,6.61-4.48,2.25-2.42,4.52-4.31,7.96-5.03,4.98-1.03,9.81-2.84,14.71-4.32,2.42-.73,4.85-1.45,7.27-2.2,1.5-.47,2.49.1,2.59,1.7.1,1.58.19,3.2-.04,4.75-.12.79-.79,1.71-1.47,2.16-1.53,1.03-3.21,1.85-4.85,2.7-3.85,1.99-5.72,5.77-7.99,9.2-2.59,3.9-4.95,8.01-7.89,11.62-3.08,3.78-7.18,6.18-12.21,6.19-15.22.03-30.44.05-45.66-.01-5-.02-9.69-1.44-14.19-3.7-4.21-2.12-7.65-5.18-10.32-8.96C2.05,83.93-.27,77.77.03,70.82c.06-1.41.67-2.06,2.07-2.06,8.04.02,16.09,0,24.13.02,1.88,0,2.54.71,2.55,2.92,0,2.32.3,4.53,2.26,5.91,1.37.97,2.97,2.02,4.54,2.15,3.94.32,7.91.12,11.87.17,1.29.02,1.76-.59,1.73-1.85-.04-1.78-.05-3.55,0-5.33.04-1.3-.45-1.81-1.74-1.79-3.09.06-6.19.03-9.28.01-2.17-.01-2.71-.92-1.63-2.81,2.09-3.64,4.39-7.17,6.3-10.91,2.45-4.81,4.2-9.91,3.44-15.47-.6-4.37-1.2-8.79-2.33-13.03-1-3.79-2.66-7.42-4.15-11.06-1.19-2.91-2.58-5.74-3.88-8.6-.53-1.17-.06-1.81,1.07-1.67,1.21.15,2.39.6,3.58.92,2.73.72,5.46,1.44,8.63,2.28Z"/>
      <path class="cls-1" d="m19.42,60.17c-3.46,0-6.93.03-10.39,0-2.55-.03-3.12-1.07-1.77-3.26,4.39-7.08,8.82-14.14,13.2-21.23,2.86-4.62,5.61-9.32,8.5-13.92.52-.82,1.45-1.79,2.26-1.87.58-.06,1.55,1.16,1.89,2,2.71,6.73,5,13.59,5.46,20.95.23,3.69-1.24,6.94-2.53,10.21-.64,1.62-1.66,3.08-2.46,4.63-.89,1.73-2.11,2.61-4.14,2.53-3.33-.14-6.68-.04-10.02-.04Z"/>
    </g>
  </g>
</svg>