<?xml version="1.0" encoding="UTF-8"?>
<svg id="Layer_2" data-name="Layer 2" xmlns="http://www.w3.org/2000/svg" viewBox="0 0 69.89 83.82">
  <defs>
    <style>
      .cls-1 {
        fill: #fff;
      }
    </style>
  </defs>
  <g id="Layer_1-2" data-name="Layer 1">
    <g>
      <path class="cls-1" d="m0,9.9V.04C.26.03.51,0,.76,0c8.96,0,17.92-.02,26.87,0,4.83.02,9.32,1.23,13.32,4.05,3.65,2.57,6.36,5.92,7.96,10.05,1.75,4.52,2.12,9.21.88,13.98-1.07,4.11-3.04,7.65-6.19,10.49-.56.5-.49.79-.01,1.29,2.28,2.4,4.3,4.97,5.48,8.14,1.21,3.26,1.56,6.58,1.34,10.02-.25,3.92-1.65,7.46-3.74,10.68-1.8,2.78-4.28,4.98-7.13,6.74-2.04,1.26-4.28,1.99-6.55,2.57-1.61.42-3.34.52-5.02.53-9.22.05-18.44.02-27.65.02-.08,0-.15-.01-.3-.02v-9.87c.28-.01.58-.04.88-.04,8,0,15.99,0,23.99,0,1.37,0,2.75,0,4.12-.04,4.6-.12,9.08-3.53,10.68-7.83,2.09-5.64.4-11.18-4.36-14.85-1.52-1.17-3.14-1.76-5.1-1.74-5.97.06-11.94,0-17.91,0-.71,0-.86-.24-.86-.9.03-2.62,0-5.25.01-7.87,0-1.03.03-1.05,1.09-1.05,5.74-.01,11.48-.14,17.21.03,3.71.11,6.27-1.71,8.26-4.42,4.78-6.5,2.63-15.2-4.58-18.86-2.1-1.07-4.42-1.23-6.75-1.22-8.44.01-16.88,0-25.31,0-.46,0-.92,0-1.42,0Z"/>
      <path class="cls-1" d="m61.33,66.25c4.6,0,8.57,4.04,8.56,8.74,0,4.97-3.9,8.85-8.85,8.83-4.83-.02-8.72-3.86-8.73-8.61-.01-5.48,4.1-8.97,9.01-8.97Z"/>
    </g>
  </g>
</svg>