<?xml version="1.0" encoding="UTF-8"?>
<svg id="Layer_2" data-name="Layer 2" xmlns="http://www.w3.org/2000/svg" viewBox="0 0 140.33 66.98">
  <defs>
    <style>
      .cls-1 {
        fill: #fff;
      }
    </style>
  </defs>
  <g id="Layer_1-2" data-name="Layer 1">
    <path class="cls-1" d="m92.56,56.59c3.52,3.11,7.04,6.22,11.26,9.93-1.96.24-2.82.43-3.69.43-9.94.02-19.88.05-29.82-.06-1.28-.01-2.9-.47-3.77-1.32-9.95-9.8-19.78-19.71-29.64-29.6-.39-.39-.69-.87-1.48-1.88h13.87c.95,0,1.89,0,2.84,0,5.68,0,11.81-1.33,16.91.39,4.84,1.62,8.61,6.44,12.76,9.78,6.76-6.86,13.77-13.96,20.96-21.26-.99,0-2.2,0-3.42,0-24.26,0-48.52-.04-72.78.04-2.69,0-4.65-.74-6.54-2.69C13.61,13.76,7.01,7.33,0,.35,1.52.19,2.38.01,3.23.01,40.28,0,77.32-.03,114.36.09c1.74,0,3.88.93,5.15,2.14,6.94,6.59,13.67,13.4,20.81,20.46-6.28,6.23-12.3,12.2-18.31,18.17-4.2,4.17-8.3,8.44-12.66,12.44-1.23,1.13-3.18,1.89-4.86,2.03-3.77.3-7.59.09-11.39.09-.18.39-.37.79-.55,1.18Z"/>
  </g>
</svg>