<?xml version="1.0" encoding="UTF-8"?>
<svg id="Layer_2" data-name="Layer 2" xmlns="http://www.w3.org/2000/svg" viewBox="0 0 91.42 71.31">
  <defs>
    <style>
      .cls-1 {
        fill: #fff;
      }
    </style>
  </defs>
  <g id="Layer_1-2" data-name="Layer 1">
    <g>
      <path class="cls-1" d="m43.7,70.59c-3.77,0-7.55.01-11.32,0-1.69,0-2.22-.51-2.29-2.2-.06-1.34.08-2.69-.02-4.03-.28-3.8-.42-7.64-1.04-11.39-.35-2.11-1.51-4.09-2.37-6.1-.57-1.32-1.08-2.72-1.95-3.83-2.15-2.74-4.32-5.49-6.78-7.95-3.46-3.46-7.93-5.42-12.38-7.28-.96-.4-2.12-.35-3.2-.47-1.46-.17-2.17-1.03-2.15-2.47.07-6.92.14-13.83.16-20.75C.35,2.18,1.81.03,3.72,0c2.35-.03,4.71.34,7.05.65,1.06.14,2.11.46,3.11.83,1.88.69,3.77,1.37,5.57,2.23,2.71,1.31,5.36,2.75,8.02,4.18,3.41,1.84,6.47,4.18,9.25,6.86,2.22,2.15,4.43,4.34,6.37,6.73,2.05,2.53,3.99,5.2,5.6,8.03,2.11,3.72,4.14,7.54,5.63,11.53,1.33,3.56,2.31,7.3,2.39,11.23.1,5.25.59,10.49.86,15.73.11,2.01-.54,2.57-2.55,2.56-3.77-.02-7.55,0-11.32,0,0,.01,0,.03,0,.04Z"/>
      <path class="cls-1" d="m65.18,39.66c-1.12-2.89-2.1-5.7-3.29-8.42-.85-1.95-1.88-3.84-2.97-5.68-1.66-2.82-3.44-5.58-5.18-8.35-.33-.52-.73-.99-1.14-1.45-.93-1.07-.58-2.05.33-2.81,1.42-1.18,2.89-2.29,4.44-3.3,2.35-1.53,4.74-3.01,7.2-4.36,1.55-.85,3.21-1.52,4.87-2.13,2.58-.95,5.15-2.02,7.83-2.58,2.33-.49,4.8-.54,7.19-.39,1.74.11,3.07,1.68,3.03,3.8-.12,6.98-.09,13.96-.05,20.94.01,1.57-.37,2.36-2.12,2.4-3.94.1-7.08,2.37-10.44,4.07-3.88,1.97-6.53,5.32-9.7,8.26Z"/>
      <path class="cls-1" d="m.03,53.44C.03,49,.07,44.57,0,40.13c-.02-1.17.59-1.49,1.48-1.51,2.58-.05,4.8.98,6.82,2.48.91.67,1.71,1.48,2.6,2.16,2.37,1.82,4.02,4.17,5.17,6.91.63,1.5,1.46,2.93,2.04,4.45.45,1.18.88,2.46.91,3.7.09,3.41-.01,6.82-.07,10.23-.03,1.93-.19,2.06-2.2,2.05-3.56-.01-7.13-.03-10.69-.05-3.88-.02-5.69-1.76-5.75-5.64-.06-3.82-.01-7.65-.01-11.47H.03Z"/>
      <path class="cls-1" d="m79.1,46.96c3.16.02,6,1.08,8.31,3.15,2.69,2.41,3.9,5.91,4.01,9.24.08,2.75-.89,5.82-2.94,8.11-2.49,2.79-5.85,4.03-9.42,3.84-8.48-.46-11.71-5.28-12-12.11-.33-7.78,6.65-11.98,12.03-12.22Z"/>
    </g>
  </g>
</svg>