<?xml version="1.0" encoding="UTF-8"?>
<svg id="Layer_2" data-name="Layer 2" xmlns="http://www.w3.org/2000/svg" viewBox="0 0 164.11 58.25">
  <defs>
    <style>
      .cls-1 {
        fill: #fff;
      }
    </style>
  </defs>
  <g id="Layer_1-2" data-name="Layer 1">
    <g>
      <path class="cls-1" d="m45.94,40.03c-.1.78-.2,1.56-.31,2.34-.09.65-.18,1.3-.26,1.95-.04.3-.16.38-.47.38-1.57-.02-3.14-.02-4.71,0-.38,0-.54-.04-.54-.49.01-13.73,0-27.46,0-41.19,0-.86,0-1.72,0-2.62h6.59v17.57s.07.04.11.06c.28-.31.56-.61.84-.92,1.88-2.09,4.21-3.32,7-3.59,2.46-.24,4.87.05,7.12,1.12,3.73,1.78,6.01,4.79,7.08,8.74,1.16,4.29,1.11,8.6-.22,12.83-1.02,3.23-2.87,5.94-5.93,7.58-3.45,1.84-7.09,2.14-10.82.98-1.6-.49-2.81-1.59-3.87-2.84-.52-.61-.96-1.29-1.43-1.95-.06.02-.13.03-.19.05Zm16.62-10.64c0-2-.27-3.95-1.24-5.74-.74-1.37-1.79-2.43-3.18-3.14-1.47-.76-3.04-.93-4.67-.84-3.04.17-5.82,2.31-6.73,5.21-.81,2.57-.9,5.18-.37,7.81.36,1.8,1.12,3.4,2.55,4.61,1.85,1.57,4.03,2.19,6.41,1.88,3.25-.42,5.53-2.13,6.6-5.31.49-1.46.62-2.96.64-4.48Z"/>
      <path class="cls-1" d="m111.2,29.18v15.47c-.79,0-1.53,0-2.26,0-1.28.01-2.55.03-3.83.06-.39,0-.53-.12-.53-.54.01-13.9,0-27.81,0-41.71,0-.67,0-1.34,0-2.06.17-.01.32-.04.46-.04,1.88,0,3.76.01,5.64-.01.42,0,.52.13.52.53,0,7.91.02,15.82.03,23.72,0,.73,0,1.47,0,2.3.18-.14.34-.23.46-.35,2.92-3.16,5.84-6.33,8.76-9.5.78-.85,1.55-1.71,2.37-2.53.18-.18.51-.31.77-.32,2.17-.03,4.35-.02,6.52-.02.32,0,.65,0,1.11,0-.39.45-.7.86-1.06,1.24-2.19,2.29-4.4,4.57-6.59,6.86-1.54,1.6-3.08,3.21-4.62,4.82-.18.19-.37.43-.43.68-.05.2,0,.52.14.67,2.19,2.5,4.4,4.99,6.61,7.48,2.4,2.71,4.8,5.42,7.2,8.13.15.16.29.33.54.62-.44,0-.74,0-1.05,0-2.12,0-4.24-.01-6.37,0-.38,0-.65-.1-.9-.39-3.96-4.52-7.94-9.04-11.91-13.56-.48-.55-.96-1.1-1.44-1.65-.06.03-.11.07-.17.1Z"/>
      <path class="cls-1" d="m30.87,29.46c-.05,3.67-.89,7.07-3.08,10.07-1.83,2.5-4.23,4.23-7.19,5.13-4.66,1.43-9.18,1.07-13.42-1.4-3.12-1.82-5.19-4.55-6.27-7.98-1.19-3.78-1.22-7.59-.05-11.38,1.27-4.13,3.86-7.17,7.82-8.98,3.45-1.58,7.08-1.8,10.72-.95,6.11,1.43,9.61,5.47,10.99,11.45.3,1.31.33,2.69.48,4.04Zm-6.65-.05c.14-2.56-.5-5.01-2.33-7-.68-.75-1.54-1.41-2.44-1.85-1.68-.83-3.51-1-5.39-.76-3.74.48-6.54,3.3-7.13,6.71-.39,2.24-.43,4.51.22,6.7.3,1.03.77,2.09,1.42,2.94,1.56,2.05,3.76,3,6.32,3.1,3.62.14,6.47-1.2,8.24-4.44.89-1.63,1.17-3.44,1.1-5.4Z"/>
      <path class="cls-1" d="m164.07,14.12c.01.21.03.38.03.54,0,1.45-.02,2.89.01,4.34,0,.49-.08.68-.64.68-3.66-.03-7.32-.01-10.97,0-.68,0-.67,0-.67.69,0,4.41-.03,8.82,0,13.23,0,.99.09,2,.27,2.97.19,1.04.9,1.75,1.93,2.01.71.18,1.46.31,2.19.32,2.35.04,4.69.02,7.04.02.24,0,.47,0,.73,0,0,.87,0,1.67,0,2.47,0,.91,0,1.83.02,2.74.01.39-.12.57-.53.56-3.23-.04-6.45-.03-9.68-.11-1.95-.05-3.77-.67-5.39-1.76-1.3-.88-2.1-2.16-2.55-3.66-.58-1.94-.65-3.94-.67-5.93-.04-4.34-.01-8.68-.02-13.02,0-.15,0-.3,0-.51-.23,0-.41-.02-.59-.03-2.21,0-4.42-.01-6.63,0-.41,0-.55-.12-.54-.52.01-1.52,0-3.03,0-4.55,0-.39.12-.54.55-.53,1.33.03,2.66.03,3.99.02,2.28-.02,3.54-1.12,3.93-3.36.23-1.34.5-2.67.74-4.01.08-.46.29-.65.79-.64,1.28.03,2.55.01,3.83,0,.43,0,.61.13.6.59-.03,2.31-.01,4.62-.04,6.92,0,.43.16.51.55.51,3.78,0,7.56,0,11.34,0,.12,0,.23,0,.38,0Z"/>
      <path class="cls-1" d="m75.02,14.05c3.49.09,6.93.12,10.38.28,1.92.09,3.59.84,4.72,2.49.79,1.15,1.08,2.45,1.09,3.81.02,4.55.03,9.1.03,13.64,0,5.75.01,11.51-.03,17.26,0,.92-.14,1.87-.41,2.74-.66,2.13-2.25,3.29-4.36,3.73-.92.19-1.88.22-2.83.23-4.16.02-8.32,0-12.48,0h-.65c-.02-.23-.04-.41-.05-.59-.02-1.46-.01-2.93-.06-4.39-.02-.5.15-.6.62-.6,3.88.01,7.77,0,11.65,0,.76,0,1.47-.15,1.82-.92.13-.29.21-.62.22-.94.03-.98,0-1.96,0-2.95,0-8.58,0-17.16.01-25.74,0-1.63-.56-2.26-2.22-2.29-2.26-.03-4.52,0-6.78.02-.7,0-.7,0-.7-.7,0-1.57-.02-3.13-.03-4.7,0-.08.02-.17.05-.38Z"/>
      <path class="cls-1" d="m87.58,9.39c-2.05,0-3.79-.66-4.76-2.57-.95-1.89-.49-4.4,1.24-5.68,1.66-1.23,3.5-1.42,5.34-.74,1.63.61,2.81,1.83,3.02,3.67.2,1.81-.44,3.3-1.93,4.41-.86.64-1.85.9-2.91.91Z"/>
    </g>
  </g>
</svg>